<svg id="Lager_1" data-name="Lager 1" xmlns="http://www.w3.org/2000/svg" viewBox="0 0 299.74 39.56"><defs><style>.cls-1{fill:#222221;}</style></defs><title>logo</title><path class="cls-1" d="M12.36,13.23a1,1,0,0,1,.87-.72H14a1,1,0,0,1,.81.53l10,24.53H25L35,13a.92.92,0,0,1,.82-.53h.77a1,1,0,0,1,.86.72l5.9,32.26a.82.82,0,0,1-.86,1.11H39.39a1,1,0,0,1-.91-.67L34.92,24.47h-.14L26.14,46.55a.82.82,0,0,1-.82.53h-.86a.88.88,0,0,1-.82-.53L15,24.47h-.2L11.31,45.93a.94.94,0,0,1-.87.67H7.32a.86.86,0,0,1-.91-1.11Z" transform="translate(-6.39 -7.51)"/><path class="cls-1" d="M67.81,7.51A17.29,17.29,0,1,1,50.58,24.84,17.25,17.25,0,0,1,67.81,7.51Zm0,29.77A12.49,12.49,0,1,0,55.38,24.84,12.47,12.47,0,0,0,67.81,37.28Z" transform="translate(-6.39 -7.51)"/><path class="cls-1" d="M98.2,13.23a1,1,0,0,1,.87-.72h.76a1,1,0,0,1,.82.53l10,24.53h.2l10-24.53a.92.92,0,0,1,.82-.53h.76a1,1,0,0,1,.87.72l5.9,32.26a.82.82,0,0,1-.86,1.11h-3.12a1,1,0,0,1-.91-.67l-3.56-21.46h-.14L112,46.55a.83.83,0,0,1-.82.53h-.86a.86.86,0,0,1-.82-.53l-8.69-22.08h-.19L97.15,45.93a.94.94,0,0,1-.87.67H93.16a.86.86,0,0,1-.91-1.11Z" transform="translate(-6.39 -7.51)"/><path class="cls-1" d="M139.86,8.91a.92.92,0,0,1,.92-.92H160a.92.92,0,0,1,.91.92v2.68a.92.92,0,0,1-.91.92H144.81V22.3h12.82a.94.94,0,0,1,.91.91V25.9a.91.91,0,0,1-.91.91H144.81V37.13H160a.92.92,0,0,1,.91.92v2.64a.91.91,0,0,1-.91.91h-19.2a.92.92,0,0,1-.92-.91Z" transform="translate(-6.39 -7.51)"/><path class="cls-1" d="M171.74,13.38a.91.91,0,0,1,.91-.87h1.2l20.83,24.1h0V13.91a.92.92,0,0,1,.91-.92h3.07a1,1,0,0,1,.92.92v32.3a.91.91,0,0,1-.92.87h-1.24L176.63,22.31h0V45.69a.91.91,0,0,1-.91.91h-3a.94.94,0,0,1-.91-.91Z" transform="translate(-6.39 -7.51)"/><path class="cls-1" d="M217.14,12.51h-7.82a.92.92,0,0,1-.91-.92V8.91a.92.92,0,0,1,.91-.92H230a.92.92,0,0,1,.91.92v2.68a.92.92,0,0,1-.91.92h-7.82V40.69a1,1,0,0,1-.92.91h-3.16a1,1,0,0,1-.92-.91Z" transform="translate(-6.39 -7.51)"/><path class="cls-1" d="M256.17,21.3l-3.84,1.82a.72.72,0,0,1-1.06-.33l-.58-1.68a.94.94,0,0,1,.15-1l6.82-6.2H260a.91.91,0,0,1,.86.92V45.69a.9.9,0,0,1-.86.91h-2.93a.91.91,0,0,1-.91-.91Z" transform="translate(-6.39 -7.51)"/><path class="cls-1" d="M274.69,35.4a3.34,3.34,0,1,1-3.31,3.37A3.35,3.35,0,0,1,274.69,35.4Z" transform="translate(-6.39 -7.51)"/><path class="cls-1" d="M285.54,39.44c3.55-4,8.55-10.13,12.1-14.36,2.4-2.68,3.65-5.08,3.65-7,0-2.45-1.68-5.24-5.91-5.24-2.64,0-4.8,1.83-6.09,3.22a.88.88,0,0,1-1.3,0l-1.63-1.63a.94.94,0,0,1-.05-1.25s3.6-4.71,9.31-4.71c6.87,0,10.52,4.37,10.52,9.41,0,3.7-2,6.24-4.61,9.36s-5.91,7-8.74,10.23H305a.94.94,0,0,1,.91.91v2.31a.94.94,0,0,1-.91.91H286.45a.91.91,0,0,1-.91-.91Z" transform="translate(-6.39 -7.51)"/></svg>